PathFileType  4	(X/Y/Z) /dataNAS/people/anoopai/OpenCap/opencap-core/Examples/Data/d712a0c6-d1a0-423f-8dc2-b78d41b5c55e/MarkerData/PreAugmentation
DataRate	CameraRate	NumFrames	NumMarkers	Units	OrigDataRate	OrigDataStartFrame	OrigNumFrames
60.0	60.0	12	20	m	60.0	328	874
Frame#	Time	Neck			RShoulder			RElbow			RWrist			LShoulder			LElbow			LWrist			midHip			RHip			RKnee			RAnkle			LHip			LKnee			LAnkle			LBigToe			LSmallToe			LHeel			RBigToe			RSmallToe			RHeel			
		X1	Y1	Z1	X2	Y2	Z2	X3	Y3	Z3	X4	Y4	Z4	X5	Y5	Z5	X6	Y6	Z6	X7	Y7	Z7	X8	Y8	Z8	X9	Y9	Z9	X10	Y10	Z10	X11	Y11	Z11	X12	Y12	Z12	X13	Y13	Z13	X14	Y14	Z14	X15	Y15	Z15	X16	Y16	Z16	X17	Y17	Z17	X18	Y18	Z18	X19	Y19	Z19	X20	Y20	Z20	

328	5.4500000	-0.0383300	0.7361100	-0.2835500	0.0394000	0.7251400	-0.4186300	0.1634900	0.4779000	-0.4495800	-0.2589800	0.5043600	-0.5930600	-0.1017000	0.7492200	-0.1419800	-0.0481900	0.5177700	0.0274500	-0.3997300	0.5942500	-0.1461700	0.1701400	0.2577600	-0.1790600	0.2157400	0.2554300	-0.2792900	0.2881000	-0.1710500	-0.2868700	0.6958300	-0.2290000	-0.1141600	0.1317500	0.2626200	-0.0760600	0.1541400	-0.1607800	-0.0139900	0.6036700	-0.1954000	0.1140100	0.6884100	-0.3686900	0.1585100	0.6852500	-0.3677400	0.1583400	0.6666300	-0.1573400	0.1219600	0.7237100	-0.4397500	-0.1297000	0.7241100	-0.4373900	-0.1296700	0.7511000	-0.2112700	-0.0743200
329	5.4666667	-0.0410500	0.7351100	-0.2844700	0.0365200	0.7240600	-0.4196100	0.1615100	0.4774900	-0.4501300	-0.2603200	0.4935200	-0.5941900	-0.1042500	0.7483700	-0.1428600	-0.0499600	0.5178400	0.0270200	-0.4050100	0.5929300	-0.1476700	0.1687400	0.2574900	-0.1794600	0.2143600	0.2551700	-0.2795900	0.2880900	-0.1716400	-0.2867400	0.6951900	-0.2293700	-0.1135700	0.1303100	0.2622000	-0.0765500	0.1538400	-0.1607900	-0.0141300	0.6038100	-0.1950200	0.1140900	0.6863500	-0.3696800	0.1580800	0.6832400	-0.3687100	0.1579100	0.6670600	-0.1560300	0.1221500	0.7214500	-0.4396500	-0.1306100	0.7219100	-0.4373000	-0.1305700	0.7504800	-0.2116800	-0.0737600
330	5.4833333	-0.0438700	0.7341000	-0.2854400	0.0334800	0.7229600	-0.4207100	0.1594500	0.4770300	-0.4508600	-0.2609500	0.4970700	-0.5947600	-0.1068300	0.7474100	-0.1437200	-0.0521000	0.5177100	0.0265500	-0.4105300	0.5913900	-0.1492800	0.1672900	0.2572600	-0.1798600	0.2129600	0.2549800	-0.2798600	0.2876300	-0.1722100	-0.2868200	0.6946000	-0.2298000	-0.1128600	0.1288000	0.2617900	-0.0770500	0.1537500	-0.1607500	-0.0142100	0.6039700	-0.1947500	0.1144800	0.6842200	-0.3709700	0.1577000	0.6811800	-0.3699800	0.1575300	0.6680300	-0.1557300	0.1229300	0.7197900	-0.4405800	-0.1310100	0.7202700	-0.4382100	-0.1309700	0.7500900	-0.2126900	-0.0729700
331	5.5000000	-0.0468500	0.7330400	-0.2864900	0.0302000	0.7218500	-0.4219500	0.1573300	0.4763600	-0.4517200	-0.2633300	0.4932000	-0.5959100	-0.1094700	0.7464100	-0.1445900	-0.0545600	0.5173300	0.0260100	-0.4161800	0.5904100	-0.1511000	0.1657600	0.2571200	-0.1802800	0.2114800	0.2549200	-0.2801500	0.2867800	-0.1727600	-0.2870700	0.6941600	-0.2304100	-0.1120600	0.1271500	0.2617300	-0.0776400	0.1538200	-0.1606700	-0.0142800	0.6039100	-0.1943200	0.1149600	0.6822700	-0.3723000	0.1573800	0.6793300	-0.3713100	0.1572300	0.6688600	-0.1555100	0.1237700	0.7182100	-0.4411400	-0.1314300	0.7186900	-0.4387400	-0.1313900	0.7494800	-0.2131400	-0.0723600
332	5.5166667	-0.0499900	0.7319200	-0.2876100	0.0266600	0.7206900	-0.4233500	0.1551700	0.4757200	-0.4526600	-0.2654200	0.5002600	-0.5966500	-0.1121700	0.7453600	-0.1454600	-0.0573200	0.5167500	0.0253500	-0.4220700	0.5887100	-0.1529600	0.1641300	0.2571200	-0.1807700	0.2098600	0.2550100	-0.2805200	0.2857800	-0.1733700	-0.2873500	0.6937300	-0.2308500	-0.1113400	0.1254600	0.2616500	-0.0782700	0.1539800	-0.1605600	-0.0143300	0.6036300	-0.1938400	0.1154300	0.6805300	-0.3734600	0.1571100	0.6777100	-0.3725000	0.1569900	0.6692800	-0.1550300	0.1244100	0.7171600	-0.4419300	-0.1316600	0.7176400	-0.4395100	-0.1316200	0.7490000	-0.2137600	-0.0717500
333	5.5333333	-0.0532600	0.7307300	-0.2887800	0.0229300	0.7194200	-0.4248400	0.1530800	0.4750500	-0.4535700	-0.2695000	0.4941600	-0.5981600	-0.1149200	0.7442500	-0.1463400	-0.0603200	0.5158300	0.0245700	-0.4284500	0.5862900	-0.1550600	0.1623700	0.2573200	-0.1813600	0.2080700	0.2552100	-0.2810000	0.2847300	-0.1738800	-0.2876200	0.6933200	-0.2311800	-0.1107500	0.1237300	0.2617500	-0.0789700	0.1541900	-0.1604400	-0.0143400	0.6032600	-0.1935400	0.1158700	0.6791400	-0.3745800	0.1569400	0.6764200	-0.3736400	0.1568500	0.6695200	-0.1548500	0.1249500	0.7162000	-0.4420600	-0.1320700	0.7166600	-0.4396400	-0.1320200	0.7485400	-0.2143000	-0.0712700
334	5.5500000	-0.0565800	0.7294700	-0.2899700	0.0191100	0.7180900	-0.4263600	0.1511300	0.4744200	-0.4543900	-0.2738200	0.4911000	-0.5996000	-0.1176800	0.7430900	-0.1472200	-0.0635100	0.5146800	0.0236300	-0.4354200	0.5827400	-0.1574000	0.1605300	0.2575500	-0.1820400	0.2060900	0.2554400	-0.2816100	0.2836400	-0.1741800	-0.2878800	0.6929000	-0.2313200	-0.1103300	0.1220100	0.2619700	-0.0797400	0.1544000	-0.1602600	-0.0143400	0.6027700	-0.1932500	0.1161500	0.6780900	-0.3756100	0.1568400	0.6754500	-0.3746700	0.1567600	0.6694200	-0.1544800	0.1251800	0.7158300	-0.4424700	-0.1323100	0.7162600	-0.4400500	-0.1322600	0.7481000	-0.2147700	-0.0709000
335	5.5666667	-0.0598700	0.7281600	-0.2911300	0.0153500	0.7166800	-0.4278300	0.1493200	0.4738900	-0.4550600	-0.2787400	0.4849400	-0.6012100	-0.1204500	0.7418700	-0.1481100	-0.0667600	0.5133100	0.0225700	-0.4429000	0.5796600	-0.1602700	0.1586800	0.2577600	-0.1827900	0.2039900	0.2556700	-0.2823200	0.2826400	-0.1743900	-0.2881000	0.6926400	-0.2316200	-0.1100000	0.1203900	0.2621500	-0.0805400	0.1546000	-0.1600800	-0.0143000	0.6022000	-0.1930100	0.1162200	0.6771900	-0.3761700	0.1566600	0.6746300	-0.3752500	0.1566000	0.6692000	-0.1544900	0.1252300	0.7153400	-0.4419800	-0.1328600	0.7157500	-0.4395900	-0.1328100	0.7476500	-0.2149700	-0.0706900
336	5.5833333	-0.0630700	0.7268400	-0.2922600	0.0117900	0.7153600	-0.4291600	0.1475600	0.4734800	-0.4555700	-0.2825000	0.4912500	-0.6021800	-0.1232700	0.7405900	-0.1490500	-0.0699400	0.5118900	0.0214200	-0.4504400	0.5745600	-0.1629200	0.1568900	0.2579000	-0.1835500	0.2019000	0.2557800	-0.2830700	0.2817400	-0.1744300	-0.2882800	0.6922800	-0.2314400	-0.1099200	0.1189100	0.2623100	-0.0813200	0.1547500	-0.1598400	-0.0142300	0.6016100	-0.1929500	0.1160700	0.6766000	-0.3765400	0.1564700	0.6740700	-0.3756300	0.1564200	0.6686100	-0.1543500	0.1248500	0.7148800	-0.4411900	-0.1335700	0.7152800	-0.4388600	-0.1335000	0.7473800	-0.2152200	-0.0705100
337	5.6000000	-0.0661600	0.7255200	-0.2933400	0.0085300	0.7141100	-0.4303100	0.1457800	0.4730500	-0.4559300	-0.2865000	0.4881000	-0.6035100	-0.1261800	0.7392200	-0.1500800	-0.0728600	0.5105700	0.0202400	-0.4575800	0.5721600	-0.1660400	0.1552800	0.2579300	-0.1842500	0.1999600	0.2557600	-0.2837700	0.2811300	-0.1745700	-0.2883100	0.6921100	-0.2312300	-0.1099300	0.1176300	0.2624300	-0.0820600	0.1548500	-0.1595200	-0.0141400	0.6009000	-0.1929300	0.1156000	0.6759900	-0.3763700	0.1561600	0.6734600	-0.3754700	0.1561100	0.6679300	-0.1548500	0.1242200	0.7152200	-0.4418900	-0.1338300	0.7155900	-0.4395600	-0.1337700	0.7472900	-0.2153600	-0.0703700
338	5.6166667	-0.0691400	0.7242100	-0.2943800	0.0055900	0.7128900	-0.4312700	0.1438300	0.4728200	-0.4561900	-0.2896400	0.4852200	-0.6047200	-0.1292100	0.7377900	-0.1511900	-0.0753500	0.5093900	0.0190900	-0.4635400	0.5679400	-0.1682300	0.1539100	0.2578400	-0.1848700	0.1982900	0.2555500	-0.2843700	0.2805500	-0.1742800	-0.2883200	0.6924500	-0.2314700	-0.1098000	0.1165800	0.2623900	-0.0827000	0.1548700	-0.1591400	-0.0140500	0.5998000	-0.1926000	0.1146400	0.6756300	-0.3761700	0.1558900	0.6730400	-0.3753100	0.1558400	0.6666100	-0.1548600	0.1229600	0.7150400	-0.4419500	-0.1344500	0.7153700	-0.4396200	-0.1344000	0.7473800	-0.2151700	-0.0702800
339	5.6333333	-0.0720400	0.7229200	-0.2953900	0.0029200	0.7118000	-0.4320800	0.1416500	0.4727400	-0.4563700	-0.2920000	0.4797700	-0.6059600	-0.1323800	0.7363100	-0.1524000	-0.0773300	0.5084300	0.0180100	-0.4679100	0.5639400	-0.1696300	0.1528000	0.2576700	-0.1853900	0.1969200	0.2552600	-0.2848500	0.2801800	-0.1738800	-0.2882100	0.6929300	-0.2311500	-0.1097700	0.1157300	0.2624200	-0.0832700	0.1548100	-0.1587400	-0.0139700	0.5985400	-0.1926300	0.1133900	0.6753600	-0.3756400	0.1555500	0.6726400	-0.3747900	0.1554800	0.6650300	-0.1552600	0.1213700	0.7144200	-0.4415000	-0.1353500	0.7147600	-0.4392100	-0.1352800	0.7478600	-0.2149600	-0.0701000
